<svg xmlns="http://www.w3.org/2000/svg" data-name="Layer 1" width="379.91653" height="404.1358" viewBox="0 0 379.91653 404.1358" xmlns:xlink="http://www.w3.org/1999/xlink"><path d="M452.05819,331.66142c7.291,87.49145,14.58191,174.9829,21.99737,259.63346,47.91125,2.09972,95.82251,4.19944,147.73558,3.00746-37.299-25.28867-74.59792-50.57734-113.39-69.71538C492.66,461.6017,476.91879,398.61645,452.05819,331.66142Z" transform="translate(-410.04173 -247.9321)" fill="#dca36b"/><path d="M786.78214,436.59989c-3.51176-30.75405-7.90906-61.40023-11.298-92.17034-3.04758-21.89073-4.33871-44.42674-11.37349-65.49558-18.87019-44.41182-84.61448-28.94607-112.4708-26.04862-76.77641,12.09708-151.32431,34.835-225.3641,57.95072-12.68941,3.77455,7.16434-.47263,11.97962-.93145,43.608-5.74167,113.47465-18.31194,147.76186-22.71008,25.5681-3.35769,62.486-8.81685,96.69551-10.38965,27.53748-.02141,35.682-.87738,50.49852,8.47435.30758.30588.59036.63317.87766.9599a26.8907,26.8907,0,0,1,1.65955,2.74648q1.063,2.95026,1.8815,5.98052c8.20761,38.71549,6.7441,41.83518,12.14975,79.38713,6.19655,47.42756,13.40032,82.67581,12.31874,135.25552-1.6787,43.746-7.91131,104.95861-20.141,113.96389-24.046,4.261-111.716.51263-161.107.23125-45.65957-1.36043-111.37795-1.74856-135.28087-10.095a38.17162,38.17162,0,0,1-6.7441-3.71033c-.17013-.158-.31772-.33574-.48108-.50107-2.97209-4.75924-3.24361-41.01949-3.94439-64.93114-2.40651-80.15944-9.252-160.124-17.78748-239.84234q-2.85267,109.06509-5.02259,218.14455c-.47995,20.86041-1.12214,41.71716-1.50633,62.58011-.14646,12.14749-.18589,24.93042,4.87049,36.211,16.02992,31.64382,100.17009,23.89024,132.738,27.36313,63.064,1.784,126.16293,3.81116,189.25285,2.75352,40.4601-1.51055,43.09307-51.67192,47.68528-82.3764C790.30741,525.36634,792.09652,480.76272,786.78214,436.59989Z" transform="translate(-410.04173 -247.9321)"/><path d="M674.08262,380.02058c-36.33207-6.63848-73.31084-8.22564-110.14653-6.09994-30.7856.44671-61.49346,2.90224-91.55688,9.80576,32.25137-.469,64.36979,2.51383,96.5851,3.00758,21.41754-.24533,42.73593-2.6541,64.11854-3.68216q21.75329-1.14453,43.48853-2.59016Q675.32757,380.242,674.08262,380.02058Z" transform="translate(-410.04173 -247.9321)"/><path d="M566.95437,434.82486c-22.63656,1.59082-43.49078,5.45015-65.14379,7.76569,58.37265,6.87141,135.45551,4.45926,184.98737.21265A447.67119,447.67119,0,0,0,566.95437,434.82486Z" transform="translate(-410.04173 -247.9321)"/><path d="M600.55433,514.36662c-30.60533,2.43158-60.61918,9.26948-90.99806,13.422,64.05884,6.29457,128.24272-3.0318,192.23621-6.00615A340.44956,340.44956,0,0,0,600.55433,514.36662Z" transform="translate(-410.04173 -247.9321)"/></svg>