<svg xmlns="http://www.w3.org/2000/svg" data-name="Layer 1" width="228.7887" height="399.77256" viewBox="0 0 228.7887 399.77256" xmlns:xlink="http://www.w3.org/1999/xlink"><path d="M634.63241,255.3032c61.87253,6.88884,100.95039,88.57328,67.48809,141.07034s-124.00812,51.55769-156.37408-1.6223S554.45825,246.37666,634.63241,255.3032Z" transform="translate(-485.60565 -250.11372)" fill="#dca36b"/><path d="M571.01817,613.38517c-24.05633.59623-23.994,35.83972,0,36.50111C595.07562,649.29,595.01324,614.04685,571.01817,613.38517Z" transform="translate(-485.60565 -250.11372)"/><path d="M668.783,321.24487c-12.11283-45.9873-54.91652-77.86868-102.84316-69.91247C539.44284,255.15512,516.92595,274.257,502.25,295.849c-13.52751,20.26954-18.34413,45.08641-16.1263,69.1575,3.285,37.72364,14.4944,74.37764,30.80895,108.45373,12.63525,25.00874,27.87487,48.59639,42.12309,72.71427-.3041.54554-.59261,1.09972-.89783,1.64471-5.8314,11.05515-11.31414,22.29048-17.2146,33.30859,1.22977-1.35843,2.48294-2.70071,3.67484-4.09534,36.70718-43.53332,73.35756-87.5214,102.45552-136.65609C667.48523,404.99786,679.2182,361.6216,668.783,321.24487Zm-38.358,70.04892c-7.75626,31.36563-14.4465,42.11306-28.73705,72.08016-13.2624,27.20485-26.81664,54.2504-41.49706,80.71922-10.50209-30.09827-23.3813-59.41706-31.35143-90.3168-10.95769-43.03929-17.30149-96.12758-5.70107-123.03417,11.97135-22.24175,15.69855-22.78757,27.94727-32.51855,13.42837-7.92641,6.09429-5.1934,21.44529-8.88578a56.48278,56.48278,0,0,1,7.265-.40575c1.18522.10443,1.90036.15957,2.38269.19048a76.46374,76.46374,0,0,1,17.66352,5.128C622.6954,307.02394,643.03679,336.51957,630.42493,391.29379Z" transform="translate(-485.60565 -250.11372)"/><path d="M591.32392,355.57076a26.1727,26.1727,0,0,0-10.22695-6.226,27.55744,27.55744,0,0,1,6.05753,7.19039c6.94978,11.20748,1.89478,27.27446-11.37318,29.53183-26.1494,3.43312-3.14907-34.90485.264-45.99509-9.15313,11.7391-22.36206,23.57846-22.7096,39.42878.35868,15.20341,15.45906,22.322,28.6212,16.52063C598.72707,390.01222,604.00262,368.27536,591.32392,355.57076Z" transform="translate(-485.60565 -250.11372)"/></svg>