<svg xmlns="http://www.w3.org/2000/svg" data-name="Layer 1" width="320.13516" height="251.36204" viewBox="0 0 320.13516 251.36204" xmlns:xlink="http://www.w3.org/1999/xlink"><path d="M490.67832,324.319c-9.91514.24574-9.88943,14.77182,0,15.04442C500.59392,339.11766,500.568,324.5917,490.67832,324.319Z" transform="translate(-439.93242 -324.31898)"/><path d="M752.6406,367.88277c-9.91514.24574-9.88943,14.77181,0,15.04442C762.5562,382.68144,762.53026,368.15548,752.6406,367.88277Z" transform="translate(-439.93242 -324.31898)"/><path d="M502.678,510.25449c-9.91514.24575-9.88943,14.77182,0,15.04443C512.5936,525.05317,512.56766,510.52721,502.678,510.25449Z" transform="translate(-439.93242 -324.31898)"/><path d="M758.08851,482.32682c-1.17522-18.91524,2.8204-33.62585-11.81372-44.30039-14.39455-9.12636-39.5025-9.78517-62.03528-8.287-3.37868-14.9288-8.96717-34.46327-11.866-42.45451-6.298-19.03043-17.97181-42.01549-41.84941-35.29965-17.02626,3.25431-22.83807,3.45218-39.40286,6.97909-5.15742,1.34483-10.92047,1.4745-15.39875,4.62192-3.89033,2.5704-5.71288,7.08244-7.11353,11.35137-2.21971,7.15593-4.65991,14.23059-7.57288,21.13742-3.57726,9.96343-12.50557,24.64842-20.012,36.62486q-10.84839-1.28582-21.73987-2.08085c2.79707-10.0454,5.286-20.77047,2.542-31.05385-.70528-2.08173-1.7321-4.21717-3.72425-5.33268-1.83669-1.0701-4.00269-.9224-6.0535-.88707-4.65143.24575-9.5714.25812-13.85252,2.29568-3.69033,2.30575-4.52422,7.05382-5.61252,10.96251-1.55754,7.63525-3.2854,15.235-4.87474,22.86316-22.814-1.34112-28.40183,4.62263-33.18329,23.72337-3.956,17.22307-6.51638,34.7433-9.96643,52.07449-1.318,7.49515-3.10944,14.91362-4.002,22.47907-1.07982,6.245-1.10668,13.12375,2.77375,18.45784,6.38564,9.0836,18.06226,11.87537,28.1241,15.00548,33.79457,9.571,69.52265,7.09851,104.12921,4.38871,22.36811-2.30045,44.79913-.783,67.15453.81075,19.1654.82736,51.56,2.298,60.67914,4.07883,45.97718,6.49871,50.94167,16.56779,56.23124-38.63486C761.01774,515.33184,758.639,498.82871,758.08851,482.32682Zm-174.93025-106.427c.06643-.11625.1371-.23055.20423-.34645.27561-.07173.68478-.18144,1.09184-.26943,1.39359-.13833,8.32762-.91781,9.9-1.14837,12.72959-1.51054,40.29187-4.464,44.46346-6.18158a18.4098,18.4098,0,0,1,2.50733-.05088c.30317.07968.583.15777.82188.22967,2.71651,1.51214,1.87908.71446,6.22593,5.38268,5.20406,5.71888,19.40568,36.13177,30.45052,56.62645-9.153.75174-17.69549,1.77909-24.626,2.65291-22.36953,4.02566-59.16965,3.55606-89.15305,2.366-1.55472.00918-3.10943.07473-4.66415.11642q-9.37281-1.37857-18.7845-2.51263C559.30327,416.71251,573.55718,397.88561,583.15826,375.89981Zm-84.24934,31.22788.00283-.00724c.03745-.086.10529-.245.13639-.31342a41.4537,41.4537,0,0,1,2.17024-4.18748,8.60666,8.60666,0,0,1,.99078-.25812c.2749-.05424.55192-.09152.82894-.13268,3.5808-.37243,7.19127-.44292,10.79114-.512,2.77871,6.3784,2.5349,18.00432,2.35964,28.65695-9.02371-.60935-18.06368-.93407-27.11778-.86641Q494.53877,418.56483,498.90892,407.12769ZM734.6116,552.97858c-20.38657-2.07484-42.08475-6.76779-73.63487-7.14869-29.77846-1.24378-59.5548-4.882-89.33185-1.51868-24.78641,2.64638-63.92284,2.42607-78.63893-.08038-12.79461-2.31141-27.3001-6.16109-32.05117-9.3124-.06007-.05388-.111-.11625-.16961-.17137.01626-.55952.05442-1.11957.11236-1.67609.32226-1.637.29116-1.85594.1788-1.43493.06572-.45811.12508-.91711.195-1.37451.22614-1.12664.53-3.32374.70528-4.67757.24593-1.731.49751-3.46119.742-5.1924,4.43589-26.44625,4.16452-58.91277,9.91485-74.32.15264-.29433.34062-.6263.5491-.95456.0325-.03621.05158-.05671.09328-.10335,1.22893-.8452.66853-.59485,3.63167-1.49783.23038-.05229.41695-.09222.5908-.12861,1.125-.12756,2.58789-.36307,2.66916-.39116q16.951-2.4296,35.86234-4.13642c-.00989.50546-.02544,1.01109-.03392,1.51637.18586-.518.35759-1.04113.542-1.55948,11.31127-.99573,23.13983-1.7699,35.55494-2.25257,1.28759.20317,2.57729.39186,3.86135.61411,26.16162,5.00088,51.7685,12.252,78.54565,13.5497,25.22385,1.44412,50.61235-1.84834,75.73585,1.82026,4.53836.63584,6.13618.28815,16.45526,3.11349,1.46708.46429,2.89671,1.03512,4.32776,1.601.23745.13639.53991.31713.87629.52419.05513.04841.12155.10795.18092.15989,1.82749,5.07473,2.3674,22.28367,4.63022,38.24371C739.29341,514.19655,739.615,533.02928,734.6116,552.97858Z" transform="translate(-439.93242 -324.31898)"/><path d="M654.18262,481.66253c-3.22462-12.66846-9.57776-20.21236-26.60472-21.36957-5.90156-.15335-12.0759.47454-17.41918,3.14088-1.99922,1.11569-10.124,5.69644-4.28536,3.66842,11.63846-2.976,19.75125-.2067,28.69087,5.36466.648.47807,3.31861,2.83665,3.48821,3.617.07279.14381.123.23992.16537.31748,2.4296,8.55164,2.14409,8.63362,1.29324,13.32479-.78231,2.15647-.159,1.75295-2.83241,5.753-13.09424,15.8422-42.17944,24.60515-53.538,9.53076-3.25359-3.587-2.80273-15.12049,3.8352-22.20646,1.11728-1.5738,5.80616-6.32151,9.07106-7.79619,3.65853-1.8116,7.68171-2.7568,11.5049-4.16081-5.7475.12155-11.724-.46871-17.16265,1.7752-9.24915,3.53044-17.20858,10.91994-19.84524,20.63885-5.15318,14.82634,6.41108,29.76062,20.236,34.35551,14.31964,5.34469,30.35582,1.59252,43.03594-6.21233C646.9652,513.21831,658.263,497.78175,654.18262,481.66253Z" transform="translate(-439.93242 -324.31898)"/><path d="M574.94285,432.19106l15.59849-43.67576,44.71566-6.23939,17.67828,44.71566C629.0176,428.3781,605.09992,429.76463,574.94285,432.19106Z" transform="translate(-439.93242 -324.31898)" fill="#dca36b"/></svg>